<?xml version="1.0" encoding="UTF-8" standalone="no"?>
<!-- Created with Inkscape (http://www.inkscape.org/) -->

<svg
   xmlns:dc="http://purl.org/dc/elements/1.1/"
   xmlns:cc="http://creativecommons.org/ns#"
   xmlns:rdf="http://www.w3.org/1999/02/22-rdf-syntax-ns#"
   xmlns:svg="http://www.w3.org/2000/svg"
   xmlns="http://www.w3.org/2000/svg"
   xmlns:sodipodi="http://sodipodi.sourceforge.net/DTD/sodipodi-0.dtd"
   xmlns:inkscape="http://www.inkscape.org/namespaces/inkscape"
   width="303.95358"
   height="267.61795"
   id="svg3533"
   version="1.1"
   inkscape:version="0.48.5 r10040"
   sodipodi:docname="New document 7">
  <defs
     id="defs3535">
    <clipPath
       id="clipPath56"
       clipPathUnits="userSpaceOnUse">
      <path
         inkscape:connector-curvature="0"
         id="path58"
         d="m 453.433,501.654 116.612,0 0,-255.767 -116.612,0 0,255.767 z" />
    </clipPath>
    <clipPath
       id="clipPath40"
       clipPathUnits="userSpaceOnUse">
      <path
         inkscape:connector-curvature="0"
         id="path42"
         d="m 574.792,430.29 165.998,0 0,-278.96 -165.998,0 0,278.96 z" />
    </clipPath>
    <clipPath
       id="clipPath24"
       clipPathUnits="userSpaceOnUse">
      <path
         inkscape:connector-curvature="0"
         id="path26"
         d="m 527.939,502.574 130.009,0 0,-283.446 -130.009,0 0,283.446 z" />
    </clipPath>
    <clipPath
       id="clipPath16"
       clipPathUnits="userSpaceOnUse">
      <path
         inkscape:connector-curvature="0"
         id="path18"
         d="M 0,612 792,612 792,0 0,0 0,612 z" />
    </clipPath>
  </defs>
  <sodipodi:namedview
     id="base"
     pagecolor="#ffffff"
     bordercolor="#666666"
     borderopacity="1.0"
     inkscape:pageopacity="0.0"
     inkscape:pageshadow="2"
     inkscape:zoom="1.4"
     inkscape:cx="136.61355"
     inkscape:cy="160.68901"
     inkscape:document-units="px"
     inkscape:current-layer="layer1"
     showgrid="false"
     fit-margin-top="10"
     fit-margin-left="10"
     fit-margin-right="10"
     fit-margin-bottom="10"
     inkscape:window-width="934"
     inkscape:window-height="785"
     inkscape:window-x="20"
     inkscape:window-y="20"
     inkscape:window-maximized="0" />
  <metadata
     id="metadata3538">
    <rdf:RDF>
      <cc:Work
         rdf:about="">
        <dc:format>image/svg+xml</dc:format>
        <dc:type
           rdf:resource="http://purl.org/dc/dcmitype/StillImage" />
        <dc:title></dc:title>
      </cc:Work>
    </rdf:RDF>
  </metadata>
  <g
     inkscape:label="Layer 1"
     inkscape:groupmode="layer"
     id="layer1"
     transform="translate(-400.26726,112.43164)">
    <path
       style="fill:#ee8500;fill-opacity:1;stroke:#000000;stroke-width:3;stroke-linecap:butt;stroke-linejoin:miter;stroke-miterlimit:4;stroke-opacity:1;stroke-dasharray:none"
       d="m 508.10673,62.412688 c -9.03725,-1.05399 -4.80543,22.915024 -30.73121,22.343513 8.65975,8.078885 22.77189,6.061567 31.31892,4.5903 4.72715,-1.085917 8.97012,-4.061002 11.77465,-7.991178 1.57753,-2.590862 0.97293,-6.257953 -1.51216,-8.068174 -2.25211,-2.043693 -4.49421,-4.177613 -5.99089,-6.855063 -1.35114,-1.640959 -3.27051,-2.645069 -4.85931,-4.019398 z"
       id="path4502"
       inkscape:connector-curvature="0"
       sodipodi:nodetypes="ccccccc" />
    <path
       style="fill:#ee8500;fill-opacity:1;stroke:#000000;stroke-width:3;stroke-linecap:butt;stroke-linejoin:miter;stroke-miterlimit:4;stroke-opacity:1;stroke-dasharray:none"
       d="m 474.7717,109.88986 c 26.75865,9.46847 33.46491,-21.606275 29.33386,-47.248879 -4.13105,-25.642604 10.66363,-65.3864255 39.78847,-81.205394 29.12484,-15.818968 25.70724,-58.52128 62.50909,-69.683469 36.80185,-11.162189 78.46577,15.024917 72.79943,47.774962 -5.66634,32.7500451 -16.31702,61.580191 -45.20405,68.116531 -28.88703,6.53634 -48.88439,23.30449 -44.70647,53.743157 3.42304,20.235742 -11.93057,74.311272 -35.75804,60.641532 17.94158,-19.35253 1.87877,-28.0545 10.82989,-42.905019 -4.58731,10.846929 -19.76164,36.627949 -39.45271,28.959769 17.91548,-16.76283 3.61339,-26.7992 13.73252,-37.54708 -12.16835,18.63523 -54.58674,51.40924 -63.87199,19.35389 z"
       id="path3573"
       inkscape:connector-curvature="0"
       sodipodi:nodetypes="czzzzzcccccc" />
    <path
       style="fill:#b86700;fill-opacity:1;stroke:#000000;stroke-width:3;stroke-linecap:butt;stroke-linejoin:miter;stroke-miterlimit:4;stroke-opacity:1;stroke-dasharray:none"
       d="m 606.97985,13.803535 c 11.46497,-0.300084 20.37933,-13.1100631 32.38655,-22.6578375 12.00722,-9.5477745 27.14319,-9.6319295 33.08654,-17.7274665 5.94335,-8.095537 -10.87165,-26.566681 0.40121,-50.264482 -1.4161,2.678891 -1.50175,2.226792 -2.52154,6.576124 -2.76171,-5.930652 -16.29174,-13.498512 -24.50201,-16.905856 3.03973,-5.193059 20.42863,-10.905626 26.59301,-11.547992 22.50905,-2.345575 25.16557,23.311078 15.42366,31.756387 -9.74192,8.445309 8.99062,41.320818 -12.65734,56.382355 C 663.58952,-2.5142664 654.6589,-5.6065022 645.11575,0.60184257 635.57259,6.8101873 627.5122,15.738255 618.22388,16.678681 c -3.91366,0.124326 -7.91305,-0.76473 -11.24403,-2.875146 z"
       id="path3575"
       inkscape:connector-curvature="0"
       sodipodi:nodetypes="cszcccsssscc" />
    <path
       style="fill:#ffffff;fill-opacity:1;stroke:#000000;stroke-width:2;stroke-linecap:butt;stroke-linejoin:miter;stroke-miterlimit:4;stroke-opacity:1;stroke-dasharray:none"
       d="m 574.95953,7.8808257 c 6.50318,-2.8410259 14.08821,-0.6764768 19.08166,4.4742763 5.06708,5.226699 9.40794,15.211652 1.70974,20.058752 -4.74936,2.990394 -9.1111,6.922934 -15.30005,6.94257 -5.52812,0.01754 -10.11911,-1.556554 -14.13515,-5.606024 -6.90885,-9.608715 -0.9581,-21.577667 8.6438,-25.8695743 z"
       id="path3577"
       inkscape:connector-curvature="0"
       sodipodi:nodetypes="cssscc" />
    <path
       style="fill:#ffffff;fill-opacity:1;stroke:#000000;stroke-width:3;stroke-linecap:butt;stroke-linejoin:miter;stroke-miterlimit:4;stroke-opacity:1;stroke-dasharray:none"
       d="m 523.25902,-3.2472273 c -5.7366,-4.0219214 -10.00826,-14.8465587 -3.36192,-20.2127317 5.91821,-4.778285 16.58516,-5.385012 22.77172,-1.292381 6.37396,4.216604 4.99709,14.7889706 -2.56034,17.9864843 -5.34496,2.2614288 -11.63018,7.17785456 -16.84946,3.5186284 z"
       id="path3579"
       inkscape:connector-curvature="0"
       sodipodi:nodetypes="sssss" />
    <path
       style="fill:#000000;fill-opacity:1;stroke:#000000;stroke-width:1;stroke-linecap:butt;stroke-linejoin:miter;stroke-miterlimit:4;stroke-opacity:1;stroke-dasharray:none"
       d="m 586.01306,18.912921 c -0.99129,3.824226 -9.27601,3.196298 -9.36764,-1.007764 -0.23208,-10.6477649 10.81031,-4.557822 9.36764,1.007764 z"
       id="path3581"
       inkscape:connector-curvature="0"
       sodipodi:nodetypes="sss" />
    <path
       style="fill:#b86700;fill-opacity:1;stroke:#000000;stroke-width:1;stroke-linecap:butt;stroke-linejoin:miter;stroke-miterlimit:4;stroke-opacity:1;stroke-dasharray:none"
       d="m 585.78392,-66.434951 c 3.4023,-2.037959 7.06064,-3.868628 11.01915,-4.456176 2.76629,-0.07961 5.54309,2.353628 5.24419,5.230643 -0.10611,1.940345 -1.6554,3.29475 -2.56396,4.878368 -2.86405,4.457601 -5.7606,9.191909 -10.32017,12.113294 -2.00936,1.168271 -4.90364,1.148931 -6.49351,-0.723223 -3.57155,-5.30617 -1.89594,-14.292433 3.1143,-17.042906 z"
       id="path3583"
       inkscape:connector-curvature="0"
       sodipodi:nodetypes="ccccccc" />
    <path
       style="fill:#b86700;fill-opacity:1;stroke:#000000;stroke-width:1;stroke-linecap:butt;stroke-linejoin:miter;stroke-miterlimit:4;stroke-opacity:1;stroke-dasharray:none"
       d="m 630.22341,-65.028563 c 4.49944,-2.903224 15.13041,-3.258678 8.93099,5.351187 -6.19942,8.609865 -8.08188,13.953845 -18.62407,15.159443 -10.54219,1.205597 -1.31822,-7.937839 0.94587,-11.9869 2.26409,-4.049061 4.24776,-5.620506 8.74721,-8.52373 z"
       id="path3585"
       inkscape:connector-curvature="0"
       sodipodi:nodetypes="zzzzz" />
    <path
       style="fill:#b86700;fill-opacity:1;stroke:#000000;stroke-width:1;stroke-linecap:butt;stroke-linejoin:miter;stroke-miterlimit:4;stroke-opacity:1;stroke-dasharray:none"
       d="m 583.60797,-19.940669 c -1.95027,-3.123042 1.42906,-10.511374 4.86053,-12.28306 3.43147,-1.771687 3.72921,-4.078647 5.82677,-4.676709 2.09757,-0.598062 5.97335,-0.836105 6.25896,1.770355 0.2856,2.606459 -2.16387,2.654659 -3.6053,5.429992 -1.44144,2.775333 -3.39434,8.471134 -6.37575,10.251256 -2.98141,1.780123 -5.01494,2.631209 -6.96521,-0.491834 z"
       id="path3587"
       inkscape:connector-curvature="0"
       sodipodi:nodetypes="zzzzzzz" />
    <path
       style="fill:#b86700;fill-opacity:1;stroke:#000000;stroke-width:1;stroke-linecap:butt;stroke-linejoin:miter;stroke-miterlimit:4;stroke-opacity:1;stroke-dasharray:none"
       d="m 640.25001,-34.137822 c 4.61695,1.148192 -2.6777,7.94563 -5.97024,11.532361 -3.29254,3.586731 -12.70096,5.261011 -8.63908,-1.780062 4.06188,-7.041073 9.99237,-10.900491 14.60932,-9.752299 z"
       id="path3591"
       inkscape:connector-curvature="0"
       sodipodi:nodetypes="zzzz" />
    <path
       style="fill:none;stroke:#000000;stroke-width:3;stroke-linecap:butt;stroke-linejoin:miter;stroke-miterlimit:4;stroke-opacity:1;stroke-dasharray:none"
       d="m 503.80352,-32.36308 c -6.69649,-5.060353 -8.42053,-10.598957 -12.96061,-14.895799 4.05598,-6.898128 11.34203,-29.29846 4.63435,-38.193351 -10.28742,-13.641885 -67.30645,-30.22209 -82.11098,8.667294 -6.57497,17.271488 8.48878,62.400287 30.06378,63.173232 23.94513,0.857856 35.4928,-8.582819 38.05664,-22.631425 10.77399,-0.48919 15.53465,3.870909 22.31682,3.880049 z"
       id="path3593"
       inkscape:connector-curvature="0"
       sodipodi:nodetypes="ccssscc" />
    <path
       inkscape:connector-curvature="0"
       id="path4480"
       d="m 541.72735,-10.372793 c -1.47816,3.6636609 -9.3902,3.1972359 -9.36764,-1.007764 0.0517,-9.636279 11.27915,-3.729981 9.36764,1.007764 z"
       style="fill:#000000;fill-opacity:1;stroke:#000000;stroke-width:1;stroke-linecap:butt;stroke-linejoin:miter;stroke-miterlimit:4;stroke-opacity:1;stroke-dasharray:none"
       sodipodi:nodetypes="sss" />
    <path
       style="fill:#ee8500;fill-opacity:1;stroke:none"
       d="m 567.54861,108.91451 c -1.18768,1.13548 -3.80161,3.71204 -5.45577,3.65905 -1.45191,-5.30299 -3.55308,-11.37735 -2.80362,-16.325549 12.25787,-3.651528 14.14114,4.962459 8.25939,12.666499 z"
       id="path4647"
       inkscape:connector-curvature="0"
       sodipodi:nodetypes="cccc" />
    <path
       style="fill:none;stroke:#000000;stroke-width:2;stroke-linecap:butt;stroke-linejoin:miter;stroke-miterlimit:4;stroke-opacity:1;stroke-dasharray:none"
       d="m 561.66014,113.17286 c -2.24423,-7.26618 -2.99799,-14.910672 -2.34223,-22.156535 0.65576,-7.245863 -0.69719,-20.294516 6.77845,-27.297605"
       id="path4542"
       inkscape:connector-curvature="0"
       sodipodi:nodetypes="csc" />
    <path
       sodipodi:nodetypes="cccc"
       inkscape:connector-curvature="0"
       id="path4696"
       d="m 542.10218,102.39665 c -1.18768,1.13548 -3.80161,3.71204 -5.45577,3.65905 -1.45191,-5.30299 -3.55308,-11.377347 -2.80362,-16.325546 12.25787,-3.651528 14.14114,4.962459 8.25939,12.666496 z"
       style="fill:#ee8500;fill-opacity:1;stroke:none" />
    <path
       style="fill:none;stroke:#000000;stroke-width:2;stroke-linecap:butt;stroke-linejoin:miter;stroke-miterlimit:4;stroke-opacity:1;stroke-dasharray:none"
       d="m 535.00205,102.69252 c -3.67118,-17.86834 -2.84699,-31.989802 2.6516,-35.481605"
       id="path4540"
       inkscape:connector-curvature="0"
       sodipodi:nodetypes="cc" />
    <g
       transform="matrix(0.14601746,0,0,-0.14601746,368.06713,-12.039705)"
       inkscape:label="CoughDropLogoFinal"
       id="g10">
      <g
         id="g22" />
      <path
         inkscape:connector-curvature="0"
         id="path34"
         style="fill:#f2b367;fill-opacity:1;fill-rule:nonzero;stroke:none"
         d="m 655.9706,348.1133 c 7.729,39.422 -7.838,76.561 -35.549,89.412 l 31.007,35.555 c 5.855,6.713 3.953,15.092 -4.227,18.619 l -53.589,10.875 c -8.901,-0.381 -13.82,-7.588 -10.934,-16.016 l 15.18,-44.316 c -30.988,-0.696 -60.107,-29.451 -67.942,-69.416 -7.836,-39.966 8.27,-77.585 36.702,-89.931 l -30.79,-35.304 c -5.855,-6.715 -4.079,-15.371 3.945,-19.238 l 53.861,-9.222 c 8.906,-0.188 13.831,6.553 10.945,14.981 l -15.288,44.631 c 30.512,1.436 58.95,29.948 66.679,69.37" />
      <g
         id="g38" />
      <path
         inkscape:connector-curvature="0"
         id="path50"
         style="fill:#e86060;fill-opacity:1;fill-rule:nonzero;stroke:none"
         d="m 715.83918,266.7172 c 14.969,37.279 6.63,76.675 -18.188,94.485 l 37.113,29.124 c 7.009,5.499 6.707,14.086 -0.668,19.081 l -50.607,20.712 c -8.815,1.291 -14.996,-4.868 -13.738,-13.686 l 6.618,-46.376 c -30.57,5.116 -64.556,-17.682 -79.732,-55.473 -15.177,-37.793 -6.395,-77.763 19.224,-95.211 l -36.853,-28.919 c -7.008,-5.499 -6.884,-14.335 0.275,-19.635 l 51.183,-19.14 c 8.714,-1.851 14.813,3.85 13.555,12.668 l -6.665,46.704 c 30.242,-4.299 63.513,18.387 78.483,55.666" />
      <g
         id="g54" />
      <path
         inkscape:connector-curvature="0"
         id="path66"
         style="fill:#49c7e8;fill-opacity:1;fill-rule:nonzero;stroke:none"
         d="m 568.706,383.6137 c -6.031,35.631 -30.94,61.934 -58.346,63.937 l 14.787,39.78 c 2.793,7.511 -1.472,13.956 -9.477,14.323 l -48.554,-7.888 c -7.369,-3.151 -9.217,-10.781 -4.109,-16.954 l 26.867,-32.466 c -25.856,-10.44 -41.216,-43.896 -35.102,-80.018 6.115,-36.124 31.631,-62.659 59.482,-64.007 l -14.684,-39.5 c -2.792,-7.512 1.455,-14.233 9.437,-14.934 l 48.257,9.366 c 7.554,2.673 9.555,9.913 4.446,16.086 l -27.056,32.697 c 25.219,10.912 40.084,43.946 34.052,79.578" />
      <path
         inkscape:connector-curvature="0"
         id="path3121"
         transform="matrix(0.8,0,0,-0.8,0,612)"
         d="m 692.0625,239.21875 c -14.2024,15.17836 -24.97175,35.85517 -29.65625,59.75 -6.05367,30.87555 -0.66259,60.5996 12.71875,82.46875 27.32299,-16.3116 42.7283,-54.7468 35.75,-95.96875 -2.98629,-17.64294 -9.69335,-33.42962 -18.8125,-46.25 z M 699,422.03125 674.34375,450.25 l 22.25,-4.3125 c 9.4425,-3.34125 11.9175,-12.40875 5.53125,-20.125 L 699,422.03125 z"
         style="fill:#458c5e;fill-opacity:1;fill-rule:nonzero;stroke:none" />
      <path
         inkscape:connector-curvature="0"
         id="path3909"
         transform="matrix(0.8,0,0,-0.8,0,612)"
         d="m 822.40625,302.625 c -31.10758,5.46809 -61.42103,31.29559 -76.625,69.15625 C 729.6912,411.84788 735.18572,453.85381 756.75,479 c 0.11003,-2.06079 -0.22965,-4.28409 -1.03125,-6.625 L 736.625,416.5625 c 38.14,-1.795 73.6825,-37.44125 83.34375,-86.71875 1.81148,-9.23953 2.58163,-18.36119 2.4375,-27.21875 z"
         style="fill:#dc4327;fill-opacity:1;fill-rule:nonzero;stroke:none" />
    </g>
    <path
       sodipodi:type="arc"
       style="fill:#ffffff;fill-opacity:1;stroke:none"
       id="path4797"
       sodipodi:cx="534.37073"
       sodipodi:cy="-32.541653"
       sodipodi:rx="13.131983"
       sodipodi:ry="13.384521"
       d="m 547.50271,-32.541653 c 0,7.392067 -5.87939,13.384521 -13.13198,13.384521 -7.2526,0 -13.13199,-5.992454 -13.13199,-13.384521 0,-7.392066 5.87939,-13.38452 13.13199,-13.38452 7.23468,0 13.10662,5.963988 13.1319,13.337752"
       sodipodi:start="0"
       sodipodi:end="6.2796911"
       sodipodi:open="true"
       transform="matrix(0.13207543,0,0,0.13207543,509.78878,20.243622)" />
    <path
       transform="matrix(0.13207543,0,0,0.13207543,465.34207,-9.5558781)"
       sodipodi:open="true"
       sodipodi:end="6.2796911"
       sodipodi:start="0"
       d="m 547.50271,-32.541653 c 0,7.392067 -5.87939,13.384521 -13.13198,13.384521 -7.2526,0 -13.13199,-5.992454 -13.13199,-13.384521 0,-7.392066 5.87939,-13.38452 13.13199,-13.38452 7.23468,0 13.10662,5.963988 13.1319,13.337752"
       sodipodi:ry="13.384521"
       sodipodi:rx="13.131983"
       sodipodi:cy="-32.541653"
       sodipodi:cx="534.37073"
       id="path4799"
       style="fill:#ffffff;fill-opacity:1;stroke:none"
       sodipodi:type="arc" />
  </g>
</svg>
