<?xml version="1.0" encoding="UTF-8" standalone="no"?>
<!-- Created with Inkscape (http://www.inkscape.org/) -->

<svg
   xmlns:dc="http://purl.org/dc/elements/1.1/"
   xmlns:cc="http://creativecommons.org/ns#"
   xmlns:rdf="http://www.w3.org/1999/02/22-rdf-syntax-ns#"
   xmlns:svg="http://www.w3.org/2000/svg"
   xmlns="http://www.w3.org/2000/svg"
   xmlns:sodipodi="http://sodipodi.sourceforge.net/DTD/sodipodi-0.dtd"
   xmlns:inkscape="http://www.inkscape.org/namespaces/inkscape"
   width="1203.9124"
   height="303.91229"
   id="svg2"
   version="1.1"
   inkscape:version="0.48.5 r10040"
   sodipodi:docname="New document 1">
  <defs
     id="defs4" />
  <sodipodi:namedview
     id="base"
     pagecolor="#ffffff"
     bordercolor="#666666"
     borderopacity="1.0"
     inkscape:pageopacity="0.0"
     inkscape:pageshadow="2"
     inkscape:zoom="0.175"
     inkscape:cx="576.19579"
     inkscape:cy="124.34701"
     inkscape:document-units="px"
     inkscape:current-layer="layer1"
     showgrid="false"
     fit-margin-top="10"
     fit-margin-left="10"
     fit-margin-right="10"
     fit-margin-bottom="10"
     inkscape:window-width="907"
     inkscape:window-height="762"
     inkscape:window-x="181"
     inkscape:window-y="33"
     inkscape:window-maximized="0" />
  <metadata
     id="metadata7">
    <rdf:RDF>
      <cc:Work
         rdf:about="">
        <dc:format>image/svg+xml</dc:format>
        <dc:type
           rdf:resource="http://purl.org/dc/dcmitype/StillImage" />
        <dc:title></dc:title>
      </cc:Work>
    </rdf:RDF>
  </metadata>
  <g
     inkscape:label="Layer 1"
     inkscape:groupmode="layer"
     id="layer1"
     transform="translate(10.000004,-413.40605)">
    <path
       sodipodi:type="arc"
       style="fill:#ffffa9;fill-opacity:1;stroke:#000000;stroke-width:9.85592747;stroke-linecap:butt;stroke-linejoin:round;stroke-miterlimit:4;stroke-opacity:1;stroke-dasharray:none"
       id="path2987"
       sodipodi:cx="450"
       sodipodi:cy="603.79077"
       sodipodi:rx="132.85715"
       sodipodi:ry="137.14285"
       d="m 582.85715,603.79077 c 0,75.74191 -59.48217,137.14285 -132.85715,137.14285 -73.37498,0 -132.85715,-61.40094 -132.85715,-137.14285 0,-75.7419 59.48217,-137.14285 132.85715,-137.14285 73.2314,0 132.65393,61.16983 132.85664,136.76324"
       sodipodi:start="0"
       sodipodi:end="6.2804173"
       sodipodi:open="true"
       transform="matrix(1.0308527,0,0,0.9986386,-321.92757,-37.606572)" />
    <path
       sodipodi:type="arc"
       style="fill:#6e6e6e;fill-opacity:1;stroke:#000000;stroke-width:10;stroke-linecap:butt;stroke-linejoin:round;stroke-miterlimit:4;stroke-opacity:1;stroke-dasharray:none"
       id="path2989"
       sodipodi:cx="235"
       sodipodi:cy="651.64789"
       sodipodi:rx="67.85714"
       sodipodi:ry="66.428574"
       d="m 302.85714,651.64789 c 0,36.68749 -30.38068,66.42857 -67.85714,66.42857 -37.47646,0 -67.85714,-29.74108 -67.85714,-66.42857 0,-0.44395 0.005,-0.88789 0.0136,-1.33175 L 235,651.64789 z"
       sodipodi:start="0"
       sodipodi:end="3.1616418"
       transform="translate(-92.186708,-51.428571)" />
    <path
       style="fill:none;stroke:#000000;stroke-width:10;stroke-linecap:butt;stroke-linejoin:miter;stroke-miterlimit:4;stroke-opacity:1;stroke-dasharray:none"
       d="m 77.639974,539.28967 c 8.32289,-21.52235 44.863876,-20.62281 51.428566,0"
       id="path2991"
       inkscape:connector-curvature="0"
       sodipodi:nodetypes="cc" />
    <path
       sodipodi:nodetypes="cc"
       inkscape:connector-curvature="0"
       id="path3761"
       d="m 157.44202,537.26937 c 8.32289,-21.52235 44.86388,-20.62281 51.42857,0"
       style="fill:none;stroke:#000000;stroke-width:10;stroke-linecap:butt;stroke-linejoin:miter;stroke-miterlimit:4;stroke-opacity:1;stroke-dasharray:none" />
    <path
       transform="matrix(1.0308527,0,0,0.9986386,-21.927566,-37.606572)"
       sodipodi:open="true"
       sodipodi:end="6.2804173"
       sodipodi:start="0"
       d="m 582.85715,603.79077 c 0,75.74191 -59.48217,137.14285 -132.85715,137.14285 -73.37498,0 -132.85715,-61.40094 -132.85715,-137.14285 0,-75.7419 59.48217,-137.14285 132.85715,-137.14285 73.2314,0 132.65393,61.16983 132.85664,136.76324"
       sodipodi:ry="137.14285"
       sodipodi:rx="132.85715"
       sodipodi:cy="603.79077"
       sodipodi:cx="450"
       id="path3763"
       style="fill:#ffffa9;fill-opacity:1;stroke:#000000;stroke-width:9.85592747;stroke-linecap:butt;stroke-linejoin:round;stroke-miterlimit:4;stroke-opacity:1;stroke-dasharray:none"
       sodipodi:type="arc" />
    <path
       sodipodi:type="arc"
       style="fill:#000000;fill-opacity:1;stroke:#000000;stroke-width:7.3976326;stroke-linecap:butt;stroke-linejoin:round;stroke-miterlimit:4;stroke-opacity:1;stroke-dasharray:none"
       id="path3771"
       sodipodi:cx="524.26917"
       sodipodi:cy="528.09302"
       sodipodi:rx="19.192898"
       sodipodi:ry="19.192898"
       d="m 543.46206,528.09302 c 0,10.59994 -8.59295,19.1929 -19.19289,19.1929 -10.59995,0 -19.1929,-8.59296 -19.1929,-19.1929 0,-10.59995 8.59295,-19.1929 19.1929,-19.1929 10.5792,0 19.16354,8.56061 19.19282,19.13977"
       sodipodi:start="0"
       sodipodi:end="6.2804173"
       sodipodi:open="true"
       transform="matrix(0.67589191,0,0,0.67589191,49.968844,172.35214)" />
    <path
       sodipodi:open="true"
       sodipodi:end="6.2804173"
       sodipodi:start="0"
       d="m 543.46206,528.09302 c 0,10.59994 -8.59295,19.1929 -19.19289,19.1929 -10.59995,0 -19.1929,-8.59296 -19.1929,-19.1929 0,-10.59995 8.59295,-19.1929 19.1929,-19.1929 10.5792,0 19.16354,8.56061 19.19282,19.13977"
       sodipodi:ry="19.192898"
       sodipodi:rx="19.192898"
       sodipodi:cy="528.09302"
       sodipodi:cx="524.26917"
       id="path3773"
       style="fill:#000000;fill-opacity:1;stroke:#000000;stroke-width:7.3976326;stroke-linecap:butt;stroke-linejoin:round;stroke-miterlimit:4;stroke-opacity:1;stroke-dasharray:none"
       sodipodi:type="arc"
       transform="matrix(0.67589191,0,0,0.67589191,121.96884,172.35214)" />
    <path
       style="fill:none;stroke:#000000;stroke-width:10;stroke-linecap:butt;stroke-linejoin:miter;stroke-miterlimit:4;stroke-opacity:1;stroke-dasharray:none"
       d="m 387.3892,605.87476 c 5.14673,65.76891 95.87343,68.3129 105.05587,0"
       id="path3775"
       inkscape:connector-curvature="0"
       sodipodi:nodetypes="cc" />
    <path
       sodipodi:type="arc"
       style="fill:#ffffa9;fill-opacity:1;stroke:#000000;stroke-width:9.85592747;stroke-linecap:butt;stroke-linejoin:round;stroke-miterlimit:4;stroke-opacity:1;stroke-dasharray:none"
       id="path3777"
       sodipodi:cx="450"
       sodipodi:cy="603.79077"
       sodipodi:rx="132.85715"
       sodipodi:ry="137.14285"
       d="m 582.85715,603.79077 c 0,75.74191 -59.48217,137.14285 -132.85715,137.14285 -73.37498,0 -132.85715,-61.40094 -132.85715,-137.14285 0,-75.7419 59.48217,-137.14285 132.85715,-137.14285 73.2314,0 132.65393,61.16983 132.85664,136.76324"
       sodipodi:start="0"
       sodipodi:end="6.2804173"
       sodipodi:open="true"
       transform="matrix(1.0308527,0,0,0.9986386,278.07243,-37.606572)" />
    <path
       transform="matrix(0.67589191,0,0,0.67589191,349.96884,172.35214)"
       sodipodi:open="true"
       sodipodi:end="6.2804173"
       sodipodi:start="0"
       d="m 543.46206,528.09302 c 0,10.59994 -8.59295,19.1929 -19.19289,19.1929 -10.59995,0 -19.1929,-8.59296 -19.1929,-19.1929 0,-10.59995 8.59295,-19.1929 19.1929,-19.1929 10.5792,0 19.16354,8.56061 19.19282,19.13977"
       sodipodi:ry="19.192898"
       sodipodi:rx="19.192898"
       sodipodi:cy="528.09302"
       sodipodi:cx="524.26917"
       id="path3779"
       style="fill:#000000;fill-opacity:1;stroke:#000000;stroke-width:7.3976326;stroke-linecap:butt;stroke-linejoin:round;stroke-miterlimit:4;stroke-opacity:1;stroke-dasharray:none"
       sodipodi:type="arc" />
    <path
       transform="matrix(0.67589191,0,0,0.67589191,421.96884,172.35214)"
       sodipodi:type="arc"
       style="fill:#000000;fill-opacity:1;stroke:#000000;stroke-width:7.3976326;stroke-linecap:butt;stroke-linejoin:round;stroke-miterlimit:4;stroke-opacity:1;stroke-dasharray:none"
       id="path3781"
       sodipodi:cx="524.26917"
       sodipodi:cy="528.09302"
       sodipodi:rx="19.192898"
       sodipodi:ry="19.192898"
       d="m 543.46206,528.09302 c 0,10.59994 -8.59295,19.1929 -19.19289,19.1929 -10.59995,0 -19.1929,-8.59296 -19.1929,-19.1929 0,-10.59995 8.59295,-19.1929 19.1929,-19.1929 10.5792,0 19.16354,8.56061 19.19282,19.13977"
       sodipodi:start="0"
       sodipodi:end="6.2804173"
       sodipodi:open="true" />
    <path
       sodipodi:nodetypes="cc"
       inkscape:connector-curvature="0"
       id="path3783"
       d="m 691.3892,605.87476 c 44.88911,-11.69013 64.30202,14.17014 105.05587,0"
       style="fill:none;stroke:#000000;stroke-width:10;stroke-linecap:butt;stroke-linejoin:miter;stroke-miterlimit:4;stroke-opacity:1;stroke-dasharray:none" />
    <path
       transform="matrix(1.0308527,0,0,0.9986386,578.07243,-37.606572)"
       sodipodi:open="true"
       sodipodi:end="6.2804173"
       sodipodi:start="0"
       d="m 582.85715,603.79077 c 0,75.74191 -59.48217,137.14285 -132.85715,137.14285 -73.37498,0 -132.85715,-61.40094 -132.85715,-137.14285 0,-75.7419 59.48217,-137.14285 132.85715,-137.14285 73.2314,0 132.65393,61.16983 132.85664,136.76324"
       sodipodi:ry="137.14285"
       sodipodi:rx="132.85715"
       sodipodi:cy="603.79077"
       sodipodi:cx="450"
       id="path3785"
       style="fill:#ffffa9;fill-opacity:1;stroke:#000000;stroke-width:9.85592747;stroke-linecap:butt;stroke-linejoin:round;stroke-miterlimit:4;stroke-opacity:1;stroke-dasharray:none"
       sodipodi:type="arc" />
    <path
       sodipodi:type="arc"
       style="fill:#000000;fill-opacity:1;stroke:#000000;stroke-width:7.3976326;stroke-linecap:butt;stroke-linejoin:round;stroke-miterlimit:4;stroke-opacity:1;stroke-dasharray:none"
       id="path3787"
       sodipodi:cx="524.26917"
       sodipodi:cy="528.09302"
       sodipodi:rx="19.192898"
       sodipodi:ry="19.192898"
       d="m 543.46206,528.09302 c 0,10.59994 -8.59295,19.1929 -19.19289,19.1929 -10.59995,0 -19.1929,-8.59296 -19.1929,-19.1929 0,-10.59995 8.59295,-19.1929 19.1929,-19.1929 10.5792,0 19.16354,8.56061 19.19282,19.13977"
       sodipodi:start="0"
       sodipodi:end="6.2804173"
       sodipodi:open="true"
       transform="matrix(0.67589191,0,0,0.67589191,649.96884,172.35214)" />
    <path
       sodipodi:open="true"
       sodipodi:end="6.2804173"
       sodipodi:start="0"
       d="m 543.46206,528.09302 c 0,10.59994 -8.59295,19.1929 -19.19289,19.1929 -10.59995,0 -19.1929,-8.59296 -19.1929,-19.1929 0,-10.59995 8.59295,-19.1929 19.1929,-19.1929 10.5792,0 19.16354,8.56061 19.19282,19.13977"
       sodipodi:ry="19.192898"
       sodipodi:rx="19.192898"
       sodipodi:cy="528.09302"
       sodipodi:cx="524.26917"
       id="path3789"
       style="fill:#000000;fill-opacity:1;stroke:#000000;stroke-width:7.3976326;stroke-linecap:butt;stroke-linejoin:round;stroke-miterlimit:4;stroke-opacity:1;stroke-dasharray:none"
       sodipodi:type="arc"
       transform="matrix(0.67589191,0,0,0.67589191,721.96884,172.35214)" />
    <path
       style="fill:none;stroke:#000000;stroke-width:10;stroke-linecap:butt;stroke-linejoin:miter;stroke-miterlimit:4;stroke-opacity:1;stroke-dasharray:none"
       d="m 990.37896,631.12857 c 13.08424,-46.90189 92.58644,-47.44917 105.05594,0"
       id="path3791"
       inkscape:connector-curvature="0"
       sodipodi:nodetypes="cc" />
  </g>
</svg>
