<?xml version="1.0" encoding="UTF-8" standalone="no"?>
<!-- Generator: Adobe Illustrator 16.0.0, SVG Export Plug-In . SVG Version: 6.00 Build 0)  -->

<svg
   xmlns:dc="http://purl.org/dc/elements/1.1/"
   xmlns:cc="http://creativecommons.org/ns#"
   xmlns:rdf="http://www.w3.org/1999/02/22-rdf-syntax-ns#"
   xmlns:svg="http://www.w3.org/2000/svg"
   xmlns="http://www.w3.org/2000/svg"
   xmlns:sodipodi="http://sodipodi.sourceforge.net/DTD/sodipodi-0.dtd"
   xmlns:inkscape="http://www.inkscape.org/namespaces/inkscape"
   version="1.1"
   id="US_UK_Download_on_the"
   x="0px"
   y="0px"
   width="135px"
   height="40px"
   viewBox="0 0 135 40"
   enable-background="new 0 0 135 40"
   xml:space="preserve"
   inkscape:version="0.48.5 r10040"
   sodipodi:docname="web_version.svg"><metadata
     id="metadata10398"><rdf:RDF><cc:Work
         rdf:about=""><dc:format>image/svg+xml</dc:format><dc:type
           rdf:resource="http://purl.org/dc/dcmitype/StillImage" /><dc:title></dc:title></cc:Work></rdf:RDF></metadata><defs
     id="defs10396" /><sodipodi:namedview
     pagecolor="#ffffff"
     bordercolor="#666666"
     borderopacity="1"
     objecttolerance="10"
     gridtolerance="10"
     guidetolerance="10"
     inkscape:pageopacity="0"
     inkscape:pageshadow="2"
     inkscape:window-width="1474"
     inkscape:window-height="921"
     id="namedview10394"
     showgrid="false"
     inkscape:zoom="3.4360152"
     inkscape:cx="47.223369"
     inkscape:cy="20"
     inkscape:window-x="0"
     inkscape:window-y="0"
     inkscape:window-maximized="0"
     inkscape:current-layer="US_UK_Download_on_the" /><g
     id="g10332"><path
       fill="#A6A6A6"
       d="M130.197,40H4.729C2.122,40,0,37.872,0,35.267V4.726C0,2.12,2.122,0,4.729,0h125.468   C132.803,0,135,2.12,135,4.726v30.541C135,37.872,132.803,40,130.197,40L130.197,40z"
       id="path10334"
       style="fill:#000000;fill-opacity:1" /><path
       d="M134.032,35.268c0,2.116-1.714,3.83-3.834,3.83H4.729c-2.119,0-3.839-1.714-3.839-3.83V4.725   c0-2.115,1.72-3.835,3.839-3.835h125.468c2.121,0,3.834,1.72,3.834,3.835L134.032,35.268L134.032,35.268z"
       id="path10336" /><g
       id="g10338"><g
         id="g10340" /></g><g
       id="g10346" /><g
       id="g10364"><g
         id="g10366" /></g></g><g
     transform="translate(-5.0739329,0.4115854)"
     style="font-size:18px;font-style:normal;font-weight:normal;line-height:125%;letter-spacing:0px;word-spacing:0px;fill:#ffffff;fill-opacity:1;stroke:none;font-family:Sans"
     id="flowRoot10927"><path
       d="m 49.852539,22.446484 c -0.228523,1.095711 -0.492195,2.226569 -0.791016,3.392578 l -1.318359,5.273438 -2.144531,0 -3.735352,-11.759766 2.293946,0 1.415039,4.684571 c 0.42773,1.470708 0.773432,2.800785 1.037109,3.990234 l 0.05273,0 c 0.257808,-1.277339 0.556635,-2.586908 0.896485,-3.928711 l 1.21289,-4.746094 2.214844,0 1.212891,4.746094 c 0.339833,1.330084 0.63866,2.639653 0.896484,3.928711 l 0.05273,0 c 0.322254,-1.406245 0.667957,-2.736322 1.03711,-3.990234 l 1.415039,-4.684571 2.293945,0 -3.735351,11.759766 -2.144532,0 -1.318359,-5.273438 c -0.298837,-1.189446 -0.562508,-2.320304 -0.791016,-3.392578 l -0.05273,0"
       style="font-variant:normal;font-weight:bold;font-stretch:normal;letter-spacing:-1.02999997px;font-family:Corbel;-inkscape-font-specification:Corbel Bold"
       id="path11042" /><path
       d="m 61.900664,29.653516 c 0.404291,1e-6 0.826166,-0.04101 1.265625,-0.123047 0.439446,-0.08203 0.884758,-0.199217 1.335938,-0.351563 l 0,1.661133 c -0.269539,0.117188 -0.682625,0.228516 -1.239258,0.333984 -0.556647,0.105469 -1.133795,0.158203 -1.731445,0.158204 -0.60352,-1e-6 -1.177739,-0.07617 -1.722657,-0.228516 -0.539065,-0.158203 -1.010744,-0.410156 -1.415039,-0.755859 -0.404298,-0.345702 -0.726563,-0.793944 -0.966796,-1.344727 -0.234376,-0.550779 -0.351564,-1.218747 -0.351563,-2.003906 -10e-7,-0.773433 0.111327,-1.45019 0.333984,-2.030274 0.222655,-0.580071 0.521483,-1.060539 0.896485,-1.441406 0.374997,-0.380851 0.802731,-0.665031 1.283203,-0.852539 0.486324,-0.193351 0.9873,-0.29003 1.50293,-0.290039 0.539057,9e-6 1.034174,0.08204 1.485351,0.246094 0.457025,0.164071 0.849602,0.421883 1.177735,0.773437 0.333976,0.35157 0.591788,0.805671 0.773437,1.362305 0.187492,0.550787 0.281242,1.204107 0.28125,1.959961 -0.0059,0.292973 -0.01466,0.541996 -0.02637,0.74707 l -5.581055,0 c 0.02929,0.392581 0.117185,0.729495 0.263672,1.010742 0.146481,0.275393 0.336911,0.500979 0.571289,0.676758 0.240231,0.169924 0.518551,0.2959 0.834961,0.37793 0.316401,0.07617 0.659175,0.114259 1.02832,0.114258 m -0.834961,-5.642579 c -0.263676,8e-6 -0.498051,0.04981 -0.703125,0.149415 -0.205082,0.09376 -0.383792,0.225592 -0.536132,0.395507 -0.146488,0.164069 -0.263675,0.357428 -0.351563,0.580078 -0.08789,0.222663 -0.146487,0.459967 -0.175781,0.711915 l 3.348633,0 c -7e-6,-0.251948 -0.03516,-0.489252 -0.105469,-0.711915 -0.06446,-0.22265 -0.164069,-0.416009 -0.298828,-0.580078 -0.128912,-0.169915 -0.292975,-0.301751 -0.492188,-0.395507 -0.193364,-0.0996 -0.42188,-0.149407 -0.685547,-0.149415"
       style="font-variant:normal;font-weight:bold;font-stretch:normal;letter-spacing:-1.02999997px;font-family:Corbel;-inkscape-font-specification:Corbel Bold"
       id="path11044" /><path
       d="m 73.913633,26.70918 c -9e-6,0.767581 -0.111337,1.447268 -0.333984,2.039062 -0.222665,0.591799 -0.515634,1.078126 -0.878906,1.458985 -0.35743,0.380859 -0.761726,0.665039 -1.212891,0.852539 -0.451178,0.18164 -0.905279,0.27246 -1.362305,0.272461 -0.32227,-1e-6 -0.612309,-0.04102 -0.870117,-0.123047 -0.257817,-0.07617 -0.483402,-0.172852 -0.676758,-0.290039 C 68.385309,30.801953 68.221247,30.678907 68.086485,30.55 67.957575,30.421094 67.855036,30.306837 67.778868,30.207227 l -0.03516,0 -0.202148,0.905273 -1.722656,0 c 0.01172,-0.251953 0.02051,-0.562499 0.02637,-0.931641 0.01172,-0.374998 0.01758,-0.72949 0.01758,-1.063476 l 0,-10.731446 2.083008,0 0,3.541993 c -3e-6,0.251962 -0.0029,0.486337 -0.0088,0.703125 -4e-6,0.210945 -0.0029,0.375008 -0.0088,0.492187 l 0.01758,0 c 0.134762,-0.09374 0.281246,-0.184562 0.439453,-0.272461 0.158199,-0.08788 0.331051,-0.166984 0.518555,-0.237304 0.187495,-0.0703 0.389643,-0.125968 0.606445,-0.166993 0.216792,-0.04101 0.445307,-0.06151 0.685547,-0.06152 0.474603,9e-6 0.934564,0.0879 1.379883,0.263672 0.451164,0.16993 0.849601,0.433602 1.195312,0.791015 0.351554,0.35157 0.629874,0.805671 0.834961,1.362305 0.205069,0.550787 0.307608,1.186529 0.307617,1.907227 m -2.15332,0.105468 c -7e-6,-0.533198 -0.06446,-0.990229 -0.193359,-1.371093 -0.128913,-0.386713 -0.298835,-0.679681 -0.509766,-0.878907 -0.205084,-0.205071 -0.421881,-0.342766 -0.650391,-0.413086 -0.222661,-0.0703 -0.445317,-0.105461 -0.667968,-0.105468 -0.304693,7e-6 -0.615239,0.06153 -0.931641,0.18457 -0.31641,0.123054 -0.603519,0.287116 -0.861328,0.492188 l 0,4.078125 c 0.08203,0.09375 0.181637,0.193361 0.298828,0.298828 0.123043,0.09961 0.257809,0.193361 0.404297,0.28125 0.152339,0.08203 0.316402,0.152345 0.492187,0.210937 0.175777,0.05274 0.363277,0.0791 0.5625,0.0791 0.339839,1e-6 0.635737,-0.06738 0.887696,-0.202149 0.257806,-0.140623 0.471673,-0.336912 0.641601,-0.588867 0.175775,-0.251951 0.307611,-0.550778 0.395508,-0.896484 0.08788,-0.351559 0.131829,-0.741207 0.131836,-1.168946"
       style="font-variant:normal;font-weight:bold;font-stretch:normal;letter-spacing:-1.02999997px;font-family:Corbel;-inkscape-font-specification:Corbel Bold"
       id="path11046" /><path
       d="m 86.197384,22.481641 c -1e-5,0.509773 -0.114268,0.978523 -0.342774,1.40625 -0.228525,0.421881 -0.606454,0.773444 -1.133789,1.054687 l 0,0.03516 c 0.29296,0.09962 0.559562,0.228522 0.799805,0.386719 0.246084,0.152349 0.454092,0.33692 0.624024,0.553711 0.175771,0.210943 0.310536,0.451177 0.404296,0.720703 0.0996,0.269536 0.149404,0.571293 0.149414,0.905274 -10e-6,0.287112 -0.04688,0.594729 -0.140625,0.922851 -0.0879,0.328128 -0.246103,0.647463 -0.474609,0.958008 -0.228525,0.304689 -0.533212,0.585939 -0.914062,0.84375 -0.380868,0.257813 -0.861337,0.462891 -1.441407,0.615234 -0.146491,0.03516 -0.307624,0.06738 -0.483398,0.09668 -0.169929,0.0293 -0.360358,0.05566 -0.571289,0.0791 -0.210944,0.01758 -0.445319,0.03223 -0.703125,0.04395 -0.257818,0.0059 -0.547857,0.0088 -0.870117,0.0088 l -3.418946,0 0,-11.759766 4.086914,0 c 0.873041,1.2e-5 1.576165,0.0879 2.109375,0.263672 0.39843,0.128918 0.744133,0.29884 1.03711,0.509766 0.29296,0.205089 0.533194,0.436534 0.720703,0.694336 0.19335,0.251963 0.333975,0.521494 0.421875,0.808594 0.09374,0.281259 0.140615,0.565438 0.140625,0.852539 m -6.363281,3.515625 0,3.313476 1.40625,0 c 0.374994,2e-6 0.69726,-0.0088 0.966797,-0.02637 0.269525,-0.02344 0.50097,-0.05859 0.694335,-0.105469 0.298822,-0.06445 0.547845,-0.149412 0.747071,-0.254883 0.199211,-0.111325 0.360344,-0.234372 0.483398,-0.36914 0.123039,-0.140622 0.21093,-0.292966 0.263672,-0.457031 0.05273,-0.169919 0.07909,-0.34863 0.0791,-0.536133 -9e-6,-0.328121 -0.09083,-0.61523 -0.272461,-0.861328 -0.181649,-0.246089 -0.465828,-0.43066 -0.852539,-0.553711 -0.169929,-0.05273 -0.369148,-0.09082 -0.597657,-0.114258 -0.228521,-0.02343 -0.52149,-0.03515 -0.878906,-0.03516 l -2.039062,0 m 1.942382,-1.801758 c 0.585932,7e-6 1.022455,-0.05859 1.309571,-0.175781 0.322258,-0.134759 0.550774,-0.319329 0.685547,-0.553711 0.140617,-0.240227 0.210929,-0.509758 0.210937,-0.808594 -8e-6,-0.310538 -0.07911,-0.585929 -0.237305,-0.826172 -0.15821,-0.246084 -0.427741,-0.427725 -0.808593,-0.544922 -0.15821,-0.04687 -0.34278,-0.07909 -0.553711,-0.09668 -0.210944,-0.02343 -0.471686,-0.03515 -0.782227,-0.03516 l -1.766601,0 0,3.041016 1.942382,0"
       style="font-variant:normal;font-weight:bold;font-stretch:normal;letter-spacing:-1.02999997px;font-family:Corbel;-inkscape-font-specification:Corbel Bold"
       id="path11048" /><path
       d="m 92.664452,24.248242 -0.175782,0 c -0.638677,7e-6 -1.201176,0.09669 -1.6875,0.290039 -0.480472,0.187507 -0.852542,0.477545 -1.116211,0.870117 l 0,5.704102 -2.083007,0 0,-8.516602 1.722656,0 0.193359,1.186524 0.03516,0 c 0.246091,-0.433586 0.583005,-0.77343 1.010743,-1.019531 0.433589,-0.251945 0.952143,-0.377921 1.555664,-0.37793 0.210931,9e-6 0.392572,0.01173 0.544922,0.03516 l 0,1.828125"
       style="font-variant:normal;font-weight:bold;font-stretch:normal;letter-spacing:-1.02999997px;font-family:Corbel;-inkscape-font-specification:Corbel Bold"
       id="path11050" /><path
       d="m 98.832695,26.858594 c -7e-6,-0.451167 -0.05274,-0.849605 -0.158203,-1.195313 -0.105476,-0.345697 -0.25196,-0.635736 -0.439453,-0.870117 -0.187507,-0.234368 -0.413092,-0.410149 -0.676758,-0.527344 -0.263678,-0.11718 -0.550787,-0.175774 -0.861328,-0.175781 -0.304692,7e-6 -0.588872,0.0586 -0.852539,0.175781 -0.257817,0.117195 -0.480473,0.292976 -0.667969,0.527344 -0.187503,0.234381 -0.333987,0.52442 -0.439453,0.870117 -0.105472,0.345708 -0.158206,0.744146 -0.158203,1.195313 -3e-6,0.451175 0.05273,0.849613 0.158203,1.195312 0.105466,0.345706 0.25195,0.635745 0.439453,0.870117 0.193356,0.228518 0.418941,0.404299 0.676758,0.527344 0.263667,0.117189 0.550776,0.175783 0.861328,0.175781 0.310542,2e-6 0.594721,-0.05859 0.852539,-0.175781 0.257806,-0.123045 0.480462,-0.298826 0.667969,-0.527344 0.187493,-0.234372 0.333977,-0.524411 0.439453,-0.870117 0.105462,-0.345699 0.158196,-0.744137 0.158203,-1.195312 m 2.153325,0 c -1e-5,0.667972 -0.0996,1.277346 -0.29883,1.828125 -0.19923,0.550783 -0.48634,1.022462 -0.861331,1.415039 -0.369148,0.392579 -0.81739,0.697266 -1.344726,0.914062 -0.52735,0.210938 -1.116217,0.316406 -1.766602,0.316407 -0.667973,-1e-6 -1.268558,-0.105469 -1.801758,-0.316407 -0.527346,-0.216796 -0.975588,-0.521483 -1.344726,-0.914062 -0.369143,-0.392577 -0.653322,-0.864256 -0.852539,-1.415039 -0.193361,-0.550779 -0.29004,-1.160153 -0.29004,-1.828125 0,-0.667964 0.09961,-1.277338 0.298829,-1.828125 0.199217,-0.550775 0.483397,-1.022454 0.852539,-1.415039 0.374997,-0.392571 0.826169,-0.694328 1.353515,-0.905274 0.52734,-0.216788 1.116207,-0.325186 1.766602,-0.325195 0.667963,9e-6 1.265619,0.108407 1.792969,0.325195 0.533195,0.210946 0.984367,0.512703 1.353515,0.905274 0.369133,0.392585 0.650383,0.864264 0.843753,1.415039 0.19921,0.550787 0.29882,1.160161 0.29883,1.828125"
       style="font-variant:normal;font-weight:bold;font-stretch:normal;letter-spacing:-1.02999997px;font-family:Corbel;-inkscape-font-specification:Corbel Bold"
       id="path11052" /><path
       d="m 107.40035,24.907422 c -0.16407,0.849615 -0.35743,1.672856 -0.58008,2.469726 l -1.02832,3.735352 -2.04785,0 -2.97949,-8.516602 2.19727,0 1.09863,3.56836 c 0.25195,0.826176 0.4746,1.62598 0.66797,2.399414 l 0.0352,0 c 0.16406,-0.749997 0.36035,-1.549801 0.58887,-2.399414 l 0.97559,-3.56836 2.19726,0 0.95801,3.56836 c 0.20507,0.755863 0.40136,1.555667 0.58887,2.399414 l 0.0352,0 c 0.19921,-0.791012 0.42187,-1.590816 0.66797,-2.399414 l 1.09864,-3.56836 2.19726,0 -2.97949,8.516602 -2.04785,0 -1.02832,-3.735352 c -0.23439,-0.837886 -0.42774,-1.661127 -0.58008,-2.469726 l -0.0352,0"
       style="font-variant:normal;font-weight:bold;font-stretch:normal;letter-spacing:-1.02999997px;font-family:Corbel;-inkscape-font-specification:Corbel Bold"
       id="path11054" /><path
       d="m 118.05981,28.642773 c -1e-5,-0.181638 -0.0527,-0.331051 -0.15821,-0.448242 -0.0996,-0.117184 -0.23438,-0.213864 -0.40429,-0.290039 -0.16993,-0.08203 -0.36622,-0.15234 -0.58887,-0.210937 -0.2168,-0.05859 -0.44532,-0.117184 -0.68555,-0.175782 -0.30469,-0.08203 -0.59766,-0.175777 -0.8789,-0.28125 -0.28126,-0.111324 -0.53028,-0.254878 -0.74707,-0.430664 -0.21094,-0.175776 -0.38086,-0.395503 -0.50977,-0.659179 -0.12305,-0.269526 -0.18457,-0.597651 -0.18457,-0.984375 0,-0.474603 0.085,-0.884759 0.25488,-1.230469 0.16992,-0.351555 0.39844,-0.641594 0.68555,-0.870117 0.29297,-0.228508 0.62988,-0.398429 1.01074,-0.509766 0.38672,-0.111319 0.79394,-0.166983 1.22168,-0.166992 0.52148,9e-6 1.01074,0.04395 1.46778,0.131836 0.45702,0.08204 0.87011,0.190438 1.23925,0.325195 l 0,1.696289 c -0.19336,-0.06445 -0.39844,-0.12304 -0.61523,-0.175781 -0.21094,-0.05859 -0.42774,-0.108392 -0.65039,-0.149414 -0.2168,-0.04101 -0.4336,-0.07324 -0.65039,-0.09668 -0.2168,-0.02929 -0.42188,-0.04394 -0.61524,-0.04395 -0.24609,7e-6 -0.4541,0.02344 -0.62402,0.07031 -0.16993,0.04688 -0.30762,0.111335 -0.41309,0.19336 -0.10547,0.07618 -0.18164,0.166999 -0.22851,0.272461 -0.0469,0.09962 -0.0703,0.205084 -0.0703,0.316406 -10e-6,0.193365 0.0498,0.351568 0.14941,0.474609 0.10547,0.123053 0.24902,0.222662 0.43066,0.298828 0.18164,0.07618 0.37207,0.140631 0.57129,0.19336 0.19922,0.04688 0.39258,0.09375 0.58008,0.140625 0.29296,0.07032 0.58593,0.155278 0.87891,0.254883 0.29296,0.09961 0.55663,0.240239 0.79101,0.421875 0.23437,0.175785 0.4248,0.40723 0.57129,0.694336 0.15234,0.281253 0.22851,0.641604 0.22852,1.081054 -1e-5,0.480471 -0.0908,0.899416 -0.27246,1.256836 -0.18165,0.357423 -0.43653,0.656251 -0.76465,0.896485 -0.32227,0.234375 -0.71192,0.407226 -1.16895,0.518554 -0.45117,0.117188 -0.94922,0.175781 -1.49414,0.175782 -0.53906,-1e-6 -1.02539,-0.04395 -1.45898,-0.131836 -0.42774,-0.08203 -0.78223,-0.1875 -1.06348,-0.316407 l 0,-1.678711 c 0.45703,0.169924 0.87891,0.287111 1.26563,0.351563 0.38671,0.0586 0.74706,0.08789 1.08105,0.08789 0.25781,1e-6 0.49804,-0.01758 0.7207,-0.05273 0.22266,-0.04101 0.41309,-0.102537 0.57129,-0.18457 0.16406,-0.08203 0.29297,-0.184569 0.38672,-0.307617 0.0937,-0.128904 0.14062,-0.281248 0.14063,-0.457032"
       style="font-variant:normal;font-weight:bold;font-stretch:normal;letter-spacing:-1.02999997px;font-family:Corbel;-inkscape-font-specification:Corbel Bold"
       id="path11056" /><path
       d="m 125.27395,29.653516 c 0.40429,1e-6 0.82616,-0.04101 1.26562,-0.123047 0.43945,-0.08203 0.88476,-0.199217 1.33594,-0.351563 l 0,1.661133 c -0.26954,0.117188 -0.68262,0.228516 -1.23926,0.333984 -0.55664,0.105469 -1.13379,0.158203 -1.73144,0.158204 -0.60352,-1e-6 -1.17774,-0.07617 -1.72266,-0.228516 -0.53906,-0.158203 -1.01074,-0.410156 -1.41504,-0.755859 -0.4043,-0.345702 -0.72656,-0.793944 -0.96679,-1.344727 -0.23438,-0.550779 -0.35157,-1.218747 -0.35157,-2.003906 0,-0.773433 0.11133,-1.45019 0.33399,-2.030274 0.22265,-0.580071 0.52148,-1.060539 0.89648,-1.441406 0.375,-0.380851 0.80273,-0.665031 1.28321,-0.852539 0.48632,-0.193351 0.9873,-0.29003 1.50292,-0.290039 0.53906,9e-6 1.03418,0.08204 1.48536,0.246094 0.45702,0.164071 0.8496,0.421883 1.17773,0.773437 0.33398,0.35157 0.59179,0.805671 0.77344,1.362305 0.18749,0.550787 0.28124,1.204107 0.28125,1.959961 -0.006,0.292973 -0.0147,0.541996 -0.0264,0.74707 l -5.58105,0 c 0.0293,0.392581 0.11718,0.729495 0.26367,1.010742 0.14648,0.275393 0.33691,0.500979 0.57129,0.676758 0.24023,0.169924 0.51855,0.2959 0.83496,0.37793 0.3164,0.07617 0.65917,0.114259 1.02832,0.114258 m -0.83496,-5.642579 c -0.26368,8e-6 -0.49805,0.04981 -0.70313,0.149415 -0.20508,0.09376 -0.38379,0.225592 -0.53613,0.395507 -0.14649,0.164069 -0.26368,0.357428 -0.35156,0.580078 -0.0879,0.222663 -0.14649,0.459967 -0.17578,0.711915 l 3.34863,0 c -10e-6,-0.251948 -0.0352,-0.489252 -0.10547,-0.711915 -0.0645,-0.22265 -0.16407,-0.416009 -0.29883,-0.580078 -0.12891,-0.169915 -0.29297,-0.301751 -0.49219,-0.395507 -0.19336,-0.0996 -0.42188,-0.149407 -0.68554,-0.149415"
       style="font-variant:normal;font-weight:bold;font-stretch:normal;letter-spacing:-1.02999997px;font-family:Corbel;-inkscape-font-specification:Corbel Bold"
       id="path11058" /><path
       d="m 134.16679,24.248242 -0.17578,0 c -0.63867,7e-6 -1.20117,0.09669 -1.6875,0.290039 -0.48047,0.187507 -0.85254,0.477545 -1.11621,0.870117 l 0,5.704102 -2.08301,0 0,-8.516602 1.72266,0 0.19336,1.186524 0.0352,0 c 0.24609,-0.433586 0.583,-0.77343 1.01074,-1.019531 0.43359,-0.251945 0.95214,-0.377921 1.55566,-0.37793 0.21093,9e-6 0.39257,0.01173 0.54492,0.03516 l 0,1.828125"
       style="font-variant:normal;font-weight:bold;font-stretch:normal;letter-spacing:-1.02999997px;font-family:Corbel;-inkscape-font-specification:Corbel Bold"
       id="path11060" /></g><g
     style="font-size:12px;font-style:normal;font-weight:normal;line-height:125%;letter-spacing:-0.69999999000000002px;word-spacing:0px;fill:#ffffff;fill-opacity:1;stroke:none;font-family:Sans"
     id="text10935"><path
       d="m 38.439262,6.0598087 0.991211,0 0,4.4287113 c -2e-6,0.781252 0.1416,1.344402 0.424805,1.689453 0.283201,0.341797 0.742184,0.512696 1.376953,0.512695 0.631506,10e-7 1.088863,-0.170898 1.37207,-0.512695 0.283198,-0.345051 0.4248,-0.908201 0.424805,-1.689453 l 0,-4.4287113 0.991211,0 0,4.5507813 c -6e-6,0.950523 -0.236009,1.668295 -0.708008,2.15332 -0.468755,0.485026 -1.162114,0.727539 -2.080078,0.727539 -0.921227,0 -1.61784,-0.242513 -2.089844,-0.727539 -0.468751,-0.485025 -0.703125,-1.202797 -0.703125,-2.15332 l 0,-4.5507813"
       style="font-size:10px;fill:#ffffff;fill-opacity:1"
       id="path11023" /><path
       d="m 48.623052,8.0422306 0,0.8496094 C 48.369141,8.7616362 48.10547,8.6639801 47.832036,8.5988712 47.558595,8.5337719 47.275392,8.5012198 46.982427,8.501215 c -0.445966,4.8e-6 -0.781252,0.068364 -1.00586,0.2050781 -0.221355,0.1367233 -0.332032,0.3418012 -0.332031,0.6152344 -1e-6,0.2083371 0.07975,0.372725 0.239258,0.493164 0.159503,0.117191 0.480141,0.2294955 0.961914,0.3369145 l 0.307617,0.06836 c 0.638017,0.136722 1.090491,0.330406 1.357422,0.581055 0.270178,0.247398 0.405269,0.594077 0.405273,1.040039 -4e-6,0.507813 -0.201827,0.909831 -0.605468,1.206054 -0.400395,0.296224 -0.952152,0.444336 -1.655274,0.444336 -0.292971,0 -0.59896,-0.0293 -0.917969,-0.08789 -0.315756,-0.05534 -0.649415,-0.139974 -1.000976,-0.253907 l 0,-0.927734 c 0.33203,0.172527 0.659178,0.302735 0.981445,0.390625 0.322264,0.08464 0.641274,0.126954 0.957031,0.126953 0.423175,10e-7 0.748695,-0.07161 0.976563,-0.214844 0.227861,-0.146483 0.341793,-0.351561 0.341797,-0.615234 -4e-6,-0.244139 -0.08301,-0.431313 -0.249024,-0.561523 -0.162763,-0.130207 -0.522464,-0.255532 -1.079101,-0.375977 l -0.3125,-0.07324 c -0.556642,-0.117185 -0.95866,-0.296221 -1.206055,-0.537109 -0.247396,-0.244138 -0.371094,-0.5777964 -0.371094,-1.000977 0,-0.5143184 0.182291,-0.9114535 0.546875,-1.1914063 0.364582,-0.2799424 0.88216,-0.4199162 1.552735,-0.4199218 0.332028,5.6e-6 0.644528,0.02442 0.9375,0.073242 0.292965,0.048834 0.563147,0.1220758 0.810547,0.2197266"
       style="font-size:10px;fill:#ffffff;fill-opacity:1"
       id="path11025" /><path
       d="m 54.329302,10.390863 0,0.439454 -4.13086,0 c 0.03906,0.618491 0.224608,1.090496 0.556641,1.416015 0.335284,0.322267 0.800778,0.483399 1.396484,0.483399 0.345049,0 0.678707,-0.04232 1.000977,-0.126954 0.325516,-0.08463 0.647781,-0.211587 0.966797,-0.380859 l 0,0.849609 c -0.322271,0.136719 -0.652674,0.240886 -0.991211,0.3125 -0.338546,0.07161 -0.68197,0.107422 -1.030273,0.107422 -0.872399,0 -1.56413,-0.253906 -2.075196,-0.761718 -0.507813,-0.507812 -0.761719,-1.19466 -0.761719,-2.060547 0,-0.895179 0.240885,-1.6048137 0.722657,-2.1289065 0.485024,-0.5273384 1.137693,-0.79101 1.958008,-0.7910156 0.735673,5.6e-6 1.316727,0.2376355 1.743164,0.7128906 0.429682,0.4720096 0.644525,1.1149126 0.644531,1.9287105 M 53.430864,10.127192 C 53.424349,9.6356588 53.286003,9.2434066 53.015825,8.9504337 52.748894,8.6574697 52.394077,8.5109854 51.951372,8.5109806 c -0.501305,4.8e-6 -0.903323,0.1416063 -1.206055,0.4248047 -0.29948,0.2832072 -0.472006,0.6819699 -0.517578,1.1962887 l 3.203125,-0.0049"
       style="font-size:10px;fill:#ffffff;fill-opacity:1"
       id="path11027" /><path
       d="m 57.587505,7.8810978 0.898438,0 0,5.4687502 -0.898438,0 0,-5.4687502 m 0,-2.1289063 0.898438,0 0,1.1376954 -0.898438,0 0,-1.1376954"
       style="font-size:10px;fill:#ffffff;fill-opacity:1"
       id="path11029" /><path
       d="m 64.206841,10.049067 0,3.300781 -0.898438,0 0,-3.271485 c -5e-6,-0.5175739 -0.100916,-0.9049433 -0.302734,-1.162109 -0.201827,-0.2571567 -0.504561,-0.3857373 -0.908203,-0.3857421 -0.485029,4.8e-6 -0.867516,0.154627 -1.147461,0.4638671 -0.27995,0.3092489 -0.419924,0.7307979 -0.419922,1.264648 l 0,3.090821 -0.903321,0 0,-5.4687502 0.903321,0 0,0.8496094 c 0.214841,-0.3287711 0.46712,-0.5745391 0.756836,-0.7373047 0.292966,-0.1627549 0.629879,-0.244135 1.010742,-0.2441406 0.628251,5.6e-6 1.103511,0.1953179 1.425781,0.5859375 0.32226,0.3873744 0.483393,0.9586629 0.483399,1.7138676"
       style="font-size:10px;fill:#ffffff;fill-opacity:1"
       id="path11031" /><path
       d="m 70.067583,13.85766 c -0.253909,0.651041 -0.501305,1.075845 -0.742187,1.274414 -0.240888,0.198566 -0.563153,0.29785 -0.966797,0.297852 l -0.717774,0 0,-0.751953 0.527344,0 c 0.247394,-2e-6 0.439451,-0.0586 0.576172,-0.175781 0.136717,-0.117189 0.288084,-0.393881 0.454101,-0.830079 l 0.161133,-0.410156 -2.211914,-5.3808592 0.952149,0 1.708984,4.2773442 1.708984,-4.2773442 0.952149,0 -2.402344,5.9765622"
       style="font-size:10px;fill:#ffffff;fill-opacity:1"
       id="path11033" /><path
       d="m 75.129303,8.5109806 c -0.481773,4.8e-6 -0.862632,0.1888067 -1.142578,0.5664063 -0.27995,0.3743528 -0.419924,0.8886752 -0.419922,1.5429691 -2e-6,0.654299 0.138345,1.170249 0.415039,1.547851 0.279946,0.37435 0.662432,0.561524 1.147461,0.561524 0.478512,0 0.857743,-0.188802 1.137695,-0.566407 0.279944,-0.377602 0.419918,-0.891925 0.419922,-1.542968 -4e-6,-0.6477835 -0.139978,-1.1604783 -0.419922,-1.5380863 C 75.987046,8.7014149 75.607815,8.5109854 75.129303,8.5109806 m 0,-0.7617187 c 0.781246,5.6e-6 1.394852,0.2539116 1.84082,0.7617187 0.445958,0.5078168 0.66894,1.2109411 0.668946,2.1093754 -6e-6,0.895184 -0.222988,1.598308 -0.668946,2.109375 -0.445968,0.507812 -1.059574,0.761718 -1.84082,0.761718 -0.784508,0 -1.399741,-0.253906 -1.845703,-0.761718 -0.442709,-0.511067 -0.664063,-1.214191 -0.664063,-2.109375 0,-0.8984343 0.221354,-1.6015586 0.664063,-2.1093754 0.445962,-0.5078071 1.061195,-0.7617131 1.845703,-0.7617187"
       style="font-size:10px;fill:#ffffff;fill-opacity:1"
       id="path11035" /><path
       d="m 78.330669,11.191645 0,-3.3105472 0.898438,0 0,3.2763672 c -2e-6,0.51758 0.10091,0.906577 0.302734,1.166992 0.201821,0.257162 0.504555,0.385743 0.908203,0.385742 0.485023,1e-6 0.86751,-0.154621 1.147461,-0.463867 0.283199,-0.309243 0.4248,-0.730792 0.424805,-1.264648 l 0,-3.1005862 0.898438,0 0,5.4687502 -0.898438,0 0,-0.839844 c -0.218103,0.332032 -0.472009,0.579427 -0.761719,0.742188 -0.286462,0.159505 -0.62012,0.239257 -1.000976,0.239257 -0.628258,0 -1.105145,-0.195312 -1.430664,-0.585937 -0.325522,-0.390624 -0.488282,-0.961913 -0.488282,-1.713867"
       style="font-size:10px;fill:#ffffff;fill-opacity:1"
       id="path11037" /><path
       d="m 87.240044,8.7209415 c -0.100916,-0.058589 -0.211593,-0.1009067 -0.332032,-0.1269531 -0.117191,-0.029292 -0.247399,-0.043941 -0.390625,-0.043945 -0.507815,4.8e-6 -0.89844,0.1660203 -1.171875,0.4980469 -0.270184,0.32878 -0.405275,0.8024123 -0.405273,1.420898 l 0,2.88086 -0.90332,0 0,-5.4687502 0.90332,0 0,0.8496094 c 0.1888,-0.3320263 0.434568,-0.5777943 0.737305,-0.7373047 0.302731,-0.1627549 0.670569,-0.244135 1.103515,-0.2441406 0.06185,5.6e-6 0.130205,0.00489 0.205078,0.014648 0.07487,0.00652 0.157874,0.017909 0.249024,0.03418 l 0.0049,0.9228515"
       style="font-size:10px;fill:#ffffff;fill-opacity:1"
       id="path11039" /></g><rect
     style="fill:#ffffff;fill-opacity:1;stroke:none"
     id="rect11020"
     width="24.301407"
     height="24.155888"
     x="6.0779448"
     y="7.2585845"
     ry="3.9891624" /><g
     id="g11130"
     transform="matrix(0.19490625,0,0,0.19490625,5.6330489,6.7882848)"><g
       id="g11116"><g
         id="g11118"><path
           id="path11120"
           d="M 56,40 H 24 V 72 H 56 V 40 z M 24,88 h 80 V 80 H 24 v 8 z m 0,16 h 80 V 96 H 24 v 8 z M 64,40 v 8 h 40 V 40 H 64 z m 0,24 h 40 V 56 H 64 v 8 z"
           inkscape:connector-curvature="0"
           style="fill:#b0bec5" /></g></g><path
       id="path11122"
       d="M 120,0 H 8 C 3.59,0 0,3.59 0,8 v 112 c 0,4.41 3.59,8 8,8 h 112 c 4.41,0 8,-3.59 8,-8 V 8 c 0,-4.41 -3.59,-8 -8,-8 z m -20,8 c 2.211,0 4,1.789 4,4 0,2.211 -1.789,4 -4,4 -2.211,0 -4,-1.789 -4,-4 0,-2.211 1.789,-4 4,-4 z M 28,8 h 56 c 2.211,0 4,1.789 4,4 0,2.211 -1.789,4 -4,4 H 28 c -2.211,0 -4,-1.789 -4,-4 0,-2.211 1.789,-4 4,-4 z M 12,8 c 2.211,0 4,1.789 4,4 0,2.211 -1.789,4 -4,4 C 9.789,16 8,14.211 8,12 8,9.789 9.789,8 12,8 z m 108,104 c 0,4.41 -3.59,8 -8,8 H 16 c -4.41,0 -8,-3.59 -8,-8 V 32 c 0,-4.41 3.59,-8 8,-8 h 96 c 4.41,0 8,3.59 8,8 v 80 z m -4,-96 c -2.211,0 -4,-1.789 -4,-4 0,-2.211 1.789,-4 4,-4 2.211,0 4,1.789 4,4 0,2.211 -1.789,4 -4,4 z"
       inkscape:connector-curvature="0"
       style="fill:#546e7a" /></g></svg>